<?xml version="1.0" encoding="utf-8"?>
<!-- Generator: Adobe Illustrator 28.0.0, SVG Export Plug-In . SVG Version: 6.00 Build 0)  -->
<svg version="1.1" id="Layer_1" xmlns="http://www.w3.org/2000/svg" xmlns:xlink="http://www.w3.org/1999/xlink" x="0px" y="0px"
	 viewBox="0 0 409.66 272.89" style="enable-background:new 0 0 409.66 272.89;" xml:space="preserve">
<style type="text/css">
	.st0{fill:#FFFFFF;}
	.st1{fill:#2A5CAA;}
	.st2{fill:#E12726;}
</style>
<g id="XMLID_5684_">
	<path id="XMLID_5693_" class="st0" d="M365.04,89.9l-0.16-0.15c-0.91-0.9-22.85-21.96-65.76-37.94
		c-13.76-5.12-23.17-7.51-29.6-7.51c-9.18,0-12.92,4.96-14.32,7.92c-1.35,2.8-1.55,5.59-1.14,8.17c-4.65-1.2-9.02-3.04-13.04-4.75
		c-1.77-0.75-3.45-1.47-5.07-2.08l-1.26-0.5c-1.32-0.52-2.58-1.02-3.84-1.48c0.28-0.32,0.54-0.64,0.79-1
		c2.65-3.71,3.45-8.47,2.25-13.39c-2.3-9.29-9.25-14.61-19.08-14.61c-2.86,0-6,0.4-9.91,1.26c-2.12,0.48-4.55,0.9-7.09,1.26
		c-1.66-3.23-5.1-5.93-10.28-8.08c-7.66-3.19-13.58-3.58-17.89-3.58c-1.91,0-3.66,0.08-5.37,0.17c-1.16,0.06-2.33,0.12-3.54,0.15
		c-7.67,0.15-12.7,1.17-18.28,3.82c-1.82-0.66-4.44-1.43-7.97-1.43c-0.27,0-0.53,0-0.79,0.01c-6.17,0.19-14.13,3.75-26.62,9.56
		c-3.6,1.67-7,3.26-10.09,4.58c-0.47,0.2-1.03,0.43-1.65,0.69c-7.78,3.25-25.99,10.85-42.55,25.7
		C31.43,75.87,20.6,99.81,20.6,127.83c0,33.32,18.69,64.27,52.59,87.14c32.7,22.04,76.25,34.16,122.63,34.16
		c5.74,0,11.44,0.09,17.46,0.16c6,0.08,12.21,0.15,18.41,0.15c6.94,0,13.04-0.1,18.64-0.3c13.16-0.49,21.82-1.73,27.3-6.38
		c1.56,0.67,3.31,1.13,5.34,1.13c3.37,0,8.21-1.3,12.24-7.53l0.06-0.12c1.37,0.37,2.91,0.59,4.64,0.59c3.29,0,6.87-0.8,11.28-2.51
		c7.3-2.83,21.75-9.3,36.46-20.94c18.94-14.97,40.75-36.23,41.24-67.9c0.02-1.16,0.06-2.27,0.09-3.38
		C389.54,126.84,388.12,113.32,365.04,89.9"/>
	<path id="XMLID_5692_" class="st1" d="M378.31,145.31c-0.41,26.75-18.85,45.12-37.16,59.61c-14.95,11.8-29.43,17.71-33.74,19.37
		c-9.57,3.72-11.15,0.88-13.92-1.41c-2.78-2.3-7.67-5.83-10.45-4.06c-2.78,1.76-2.79,5.65,1.23,5.83c4,0.17,5.05,1.23,2.09,5.83
		c-2.97,4.59-4.88,2.47-8.54-0.53c-3.65-3-5.23-1.76-5.23-1.76c1.4,7.42-4.35,9.53-22.63,10.23c-18.29,0.68-36.58,0-54.13,0
		c-91.86,0-164.62-49.51-164.62-110.58c0-61.08,58.55-82.75,69.91-87.62s26.83-13.11,32.91-13.31c6.07-0.19,6.95,3.47,11.56,1.09
		c4.6-2.38,8.23-3.34,15.38-3.48c7.14-0.15,13.14-1.45,22.57,2.45c9.44,3.92,4,5.66-6.86,5.37s-11.43-3.33-17.99,2.46
		c-6.58,5.8-8.72,4.06-12.01-0.28c-3.29-4.35-3.86-3.48-6.72,1.01c-2.85,4.49-6.42,5.94-15.56,6.38c-9.15,0.44-13.15,1.3-12.71,8.26
		c0.42,6.96,10.57,0.73,18.42-3.04c7.86-3.77,12.86-10.87,18-6.53s6.74,1.09,10.29-1.44c6.5-4.64,6.92-4.42,14.79-2.8
		c7.87,1.63,24.15,0.18,33.99-2c9.84-2.17,14.85-1.09,16.45,5.44c1.61,6.54-4.83,7.45-13.06,8.02c-8.22,0.58-16.45,1.24-25.93,0
		c-9.48-1.23-12.52-2.2-15.2,2.51c-2.69,4.72,3.93,5.63,9.11,3.26c5.19-2.36,15.21-9.07,13.24,2.91s-35.8-0.53-69.48,26.7
		c-33.67,27.22-36.35,77.72,12.2,104.2c48.55,26.49,109.06,22.02,150.05,11.63c40.99-10.4,49.04-29.46,52.94-41.83
		c3.9-12.38,5.19-9.85,6.81-13.55c1.6-3.69-3.72-0.51-2.12-9.35c1.6-8.85,6.18-9.35,1.44-12.96s-2.79,0.94-5.33,5.75
		c-2.53,4.8,0.38,0.52-19.96-17.58C298,91.4,259.38,85.28,232.81,85.92c-26.57,0.63-53.56,4-66.64,4.43
		c-13.08,0.42-13.29,1.47-18.68-1.9c-5.4-3.37-1.45-5.9,5.19-6.32s24.49,4.01,31.55,1.68c7.06-2.32,5.4-7.16,7.27-8
		c1.87-0.84,18.47-0.41,27.19,0c8.73,0.43,8.73-3.58,3.12-4s-11-4.42-6.86-9.06c4.16-4.63,9.14-2.32,17.23,0.84
		c8.1,3.17,18.27,8.64,30.72,8.85c12.46,0.21,8.31-3.17,5.2-7.16c-3.11-4-13.91-18.75,27.4-3.38s62.07,35.6,62.07,35.6
		C381.42,121.72,378.51,132.25,378.31,145.31"/>
	<path id="XMLID_5691_" class="st2" d="M299.27,125.63c-5.11,6.26-5.26-0.77-15.79-1.22c-10.53-0.46-14.66,9.12-14.15,7.03
		c4.06-16.63,17.61-18.94,27.38-16.8C306.49,116.78,304.39,119.38,299.27,125.63"/>
	<path id="XMLID_5690_" class="st2" d="M161.31,140.06c0,0-0.26,8.83-0.26,11.05c0,2.21-2.38,1.79-5.81,2.11s-5.81,5.11-9.65,11.67
		c-3.84,6.55-10.07,9.92-15.99,7.92c-5.92-2-8.64-4.98-9.56-8.34c-1.34-4.83,4.23,2.97,15.93-9.23
		c11.69-12.2,18.95-23.78,22.75-23.78C162.55,131.44,161.47,133.63,161.31,140.06"/>
	<path id="XMLID_5689_" class="st2" d="M136.62,111.25c-0.67,3.98-1.61,6.73-1.61,6.73c-1.49,9.88-2.44,21.52-2.71,28.79
		c-0.27,7.27-4.46,10.01-7.57,10.01c-3.1,0-7.43-1.09-6.62-13.02c0.81-11.94,2.84-28.26,5.95-35.94c3.12-7.69,4.06-5.89,7.31-3.56
		C134.6,106.59,137.3,107.28,136.62,111.25"/>
	<path id="XMLID_5686_" class="st2" d="M300.5,141.21c-13.46-1.18-30.25-2.2-46.54,1.52c-16.3,3.71-20.79-1.69-25.28-5.57
		c-3.41-2.95-6.43-8.63-9.52-11.17c-0.58-0.49-1.16-0.85-1.76-1.08l-0.01-0.01c-0.58-0.14-1.13-0.2-1.63-0.2
		c-1.63,0.12-2.94,0.83-4.07,1.85c-1.54,1.38-2.74,3.28-3.93,4.88c-2.17,2.88-5.99,0.49-10.32-3.89c-4.32-4.39-6.65-9.96-13.62-6.24
		c-6.99,3.71-19.78,12.99-18.62,23.27s12.31,11.14,19.77,10.12c0,0,4.52-0.54,6.78-0.11c3.27,0.61,1.81,4.1-3.33,7.66
		c-5.15,3.56-5.03,5.22-5.03,5.22c5.26,0.35,12.99,2.96,20.37-0.85c7.37-3.79,6.67-13.89,11.12-14.01s4.57,6.18,13.46,5.02
		c8.9-1.14,3.34,0.26,20.46,0.26c17.13,0,16.8-1.35,36.41-4.22c19.61-2.87,23.76,3.37,26.09,4.72s8.49-4.89,10.64-8.42
		C324.11,146.44,313.96,142.38,300.5,141.21 M189.18,142.46c-2.22,2.37-6.02-2.21-4.67-4.53
		C185.86,135.62,191.36,140.15,189.18,142.46"/>
	<path id="XMLID_5685_" class="st2" d="M229.16,105.15c-2.78,0.16-7.78,0-9.98,2.69c-2.2,2.67-3.66,4.61-5.43,4.32
		c-1.76-0.3,0.29-2.98,0.15-6.11c-0.15-3.13-3.96-2.68-9.68,2.68c-5.73,5.36-8.22,9.07-4.26,11.36c3.96,2.28,9.97-0.21,11.29-1.23
		c1.33-1.06,3.09,0.28,3.53,1.23c0.18,0.38,0.45,1.22,0.68,2.23c0.13,0.55,0.24,1.16,0.33,1.77l1.79,0.25
		c0.3-0.75,0.76-1.3,1.47-1.84c0.73-0.55,1.72-1.11,3.07-1.86c4.55-2.53,4.4-7.89,5.56-10.41
		C228.88,107.68,231.95,105,229.16,105.15"/>
</g>
</svg>
