<?xml version="1.0" encoding="utf-8"?>
<!-- Generator: Adobe Illustrator 28.0.0, SVG Export Plug-In . SVG Version: 6.00 Build 0)  -->
<svg version="1.1" id="Layer_1" xmlns="http://www.w3.org/2000/svg" xmlns:xlink="http://www.w3.org/1999/xlink" x="0px" y="0px"
	 viewBox="0 0 150 100" style="enable-background:new 0 0 150 100;" xml:space="preserve">
<style type="text/css">
	.st0{fill:#FFFFFF;}
	.st1{fill:#005F2A;}
	.st2{fill:#FFFBD2;}
</style>
<g id="XMLID_3058_">
	<path id="XMLID_3080_" class="st0" d="M75,89.4C33.6,89.4,0,71.8,0,50s33.6-39.4,75-39.4s75,17.7,75,39.4S116.4,89.4,75,89.4z
		 M75,14.4c-39.2,0-71.1,16-71.1,35.6S35.8,85.6,75,85.6s71.1-16,71.1-35.6S114.2,14.4,75,14.4z"/>
	<path id="XMLID_3079_" class="st1" d="M148.1,50c0,20.7-32.7,37.5-73.1,37.5C34.7,87.5,1.9,70.7,1.9,50S34.7,12.5,75,12.5
		S148.1,29.3,148.1,50"/>
	<polygon id="XMLID_3078_" class="st2" points="83.4,66 83.4,59.8 89.9,59.8 89.9,60.5 84.4,60.5 84.4,62.5 89.8,62.5 89.8,63.1 
		84.4,63.1 84.4,65.3 89.9,65.3 89.9,66 	"/>
	<path id="XMLID_3077_" class="st2" d="M91.2,62.5c0-0.7,0.2-1.1,0.6-1.4c0.4-0.3,1.2-0.4,2.2-0.4h1c1,0,1.7,0.1,2.1,0.3
		s0.7,0.6,0.7,1v0.2H97v-0.1c0-0.4-0.1-0.6-0.4-0.8c-0.3-0.1-0.8-0.2-1.6-0.2h-0.7c-0.5,0-0.9,0-1.2,0.1s-0.4,0.1-0.6,0.2
		c-0.2,0.1-0.3,0.2-0.3,0.3c-0.1,0.1-0.1,0.4-0.1,0.8v1.5c0,0.4,0,0.6,0.1,0.8s0.2,0.3,0.3,0.3c0.2,0.1,0.4,0.2,0.6,0.2
		c0.2,0,0.6,0.1,1.2,0.1H95c0.5,0,0.8,0,1.1-0.1c0.2,0,0.4-0.1,0.5-0.2c0.1-0.1,0.2-0.2,0.3-0.3c0.1-0.1,0.1-0.4,0.1-0.7v-0.3h-2.2
		v-0.5h3.1v0.9c0,0.7-0.2,1.1-0.6,1.4c-0.4,0.3-1.2,0.4-2.2,0.4h-1c-1.1,0-1.8-0.1-2.2-0.4c-0.4-0.3-0.6-0.7-0.6-1.4L91.2,62.5
		L91.2,62.5z"/>
	<polygon id="XMLID_3076_" class="st2" points="101.9,66 101.1,66 101.1,63.7 97.8,60.8 98.8,60.8 101.5,63.2 104.1,60.8 
		105.2,60.8 101.9,63.7 	"/>
	<path id="XMLID_3073_" class="st2" d="M105.8,66v-5.2h3.3c0.9,0,1.5,0.1,1.8,0.3s0.5,0.5,0.5,0.9v0.8c0,0.5-0.2,0.8-0.5,1
		c-0.3,0.2-0.9,0.3-1.8,0.3h-2.4v2H105.8z M110.5,62.8V62c0-0.2-0.1-0.4-0.3-0.5s-0.6-0.1-1.2-0.1h-2.4v2.1h2.4c0.6,0,1,0,1.2-0.1
		C110.4,63.2,110.5,63,110.5,62.8"/>
	<polygon id="XMLID_3072_" class="st2" points="111.9,61.3 111.9,60.8 117.8,60.8 117.8,61.3 115.2,61.3 115.2,66 114.4,66 
		114.4,61.3 	"/>
	<path id="XMLID_3071_" class="st2" d="M46.6,51c-0.2-0.7-0.8,0.2-2.5,1.6s-4.9,3.6-5,3.1c0,0,3.9-7.4,5.5-10.3s1.8-3.1,0.9-4
		l-0.9-0.9c0,0-0.5-0.3-2.8,2.2c-2.3,2.5-11.3,10.9-13.5,11c-2.2,0.1-2.4-3.2,2.5-8.2s11.5-9.7,12.1-8.9c0.6,0.8-3.7,2.9-0.8,2.7
		c0,0,0.2-0.1,1.3-0.8s5.7-4,5-5.7C47.8,31,47.4,30,43,31.3c-4.4,1.3-14.9,7.6-18.4,16.9s4.3,8.8,6.8,7c2.5-1.8,7.8-6.7,6.6-4.6
		c-1.2,2.1-4.9,8.7-5.3,8.9c-0.4,0.2-7.4,5.6-6.3,9c1.1,3.4,6.3-3.5,8.2-5.6s7.5-6.8,9.8-8.8C46.7,52.1,46.8,51.7,46.6,51"/>
	<path id="XMLID_3065_" class="st2" d="M131.2,52.4c-2.1,1.6-4,3.1-5.8,2.5c0,0-0.4-0.4,1.2-1.4c1.6-1,4.5-3.9,4.2-6.9
		c-0.3-3-0.4-3-0.6-4.4s-1.2-2.5-2.4-0.8c-1.3,1.7-0.7,2.2-2.7,3.9c-2,1.7-9.9,9.5-13.3,9.5s-3.7-2.3-3.2-3.1c0,0,3-1,6-3.1
		c2.9-2.1,4-4.5,3.4-6.1c-0.6-1.7-6.4-0.9-10,3c-2.6,2.9-3,6.1-3,6.1s-3.6,3.2-6.4,2.8c-2.8-0.5-0.8-3.7-0.8-3.7s6.1-4.8,4.7-7.1
		c-0.7-1.2-3.7,0.3-5.5,2.8c-1.7,2.3-2.4,5.5-2.4,5.5s-5,3.6-6.3,3.4c-1.4-0.2-1.6-4.5,1.5-9c3.1-4.5,7.9-10.9,7.1-12.7
		c-0.8-1.8-3.2-0.2-6,4.5c-2.8,4.7-2.2,5.6-2.2,5.6s-3.4-1.6-8.6,2.1c-3.2,2.4-3.9,5.9-3.9,5.9s-4.6,2.7-4,0.6c0,0,3.3-6.4,0.7-7
		c0,0,1.9-3.5-1.2-3.1s-9.6,4.1-9.7,9.6c0,0-2.7,2.7-4.1,0.9c0,0,3.6-6.8,1.2-7c0,0,1.2-3.8-2.8-2.8c-3.9,1.1-8.5,5.6-8.4,10.2
		c0.1,4.6,2.4,8.2,8.7,2.4c0,0,2.6,0.3,5.4-2.2c0,0,0.7,10.1,8.7,2.2c0,0,2.4,0.6,5.6-2.4c0,0,0,4.1,2.2,4.6s6.5-5.4,6.5-5.4
		s-0.9,5.2,0.7,6.1c0.7,0.4,2.2,0.2,3.7-0.8c2-1.4,4.1-3.9,5-4.3c0,0-0.3,4.3,1.9,4.9c3.7,1,8.9-5,8.9-5s-0.7,6.5,5.3,5.2
		c2.6-0.5,5.6-3.3,8.6-5.9c3.8-3.3,7.2-6.6,7.2-6.6s0.9-0.6,0.7,1.5c-0.2,2.1-1.6,6.5-3.4,6.5c0,0-1.9-2.3-3.6-0.7s-0.1,5.3,3.8,5.4
		c3.9,0.1,7.9-3.8,9.3-4.9C134.2,52.4,133.3,50.8,131.2,52.4 M114.9,44.4c1.5,1.2-3.7,4.4-5.8,4.9C109.1,49.2,113.4,43.2,114.9,44.4
		 M54.8,53.5c0,0-3.1,3.3-4.1,1.1c-1.9-4.1,5-7.1,5-7.1S53.4,51.5,54.8,53.5 M68.8,53.5c0,0-3.1,3.3-4.1,1.1c-1.9-4.1,5-7.1,5-7.1
		S67.4,51.5,68.8,53.5 M84.3,49.8c-1.6,1.5-4.3,4.7-5.1,4.3s0-3.5,1.8-4.8c1.8-1.3,5.6-3,5.6-3C86.5,46.8,85.9,48.3,84.3,49.8"/>
	<path id="XMLID_3064_" class="st2" d="M103,41.9c0.5,0.3,1.9,0.5,3-1.2s1.1-4-0.7-3.5C103.6,37.6,101.4,41,103,41.9"/>
	<path id="XMLID_3063_" class="st2" d="M57.6,39c2.2,1.3,3.6,3.7,3.6,3.7c-0.8-8-7.7-5.5-8.9-4.5C52.3,38.2,55.6,37.8,57.6,39"/>
	<path id="XMLID_3062_" class="st2" d="M68.9,38.5c2.1-1,5.4-0.4,5.4-0.4c-1.1-1.1-7.8-4.2-9.2,3.8C65.1,41.9,66.7,39.6,68.9,38.5"
		/>
	<rect id="XMLID_3061_" x="16.5" y="62.9" class="st2" width="9.1" height="1.7"/>
	<rect id="XMLID_3060_" x="119" y="62.9" class="st2" width="12.9" height="1.7"/>
	<rect id="XMLID_3059_" x="36.8" y="62.9" class="st2" width="43.8" height="1.7"/>
</g>
</svg>
