<?xml version="1.0" encoding="utf-8"?>
<!-- Generator: Adobe Illustrator 28.0.0, SVG Export Plug-In . SVG Version: 6.00 Build 0)  -->
<svg version="1.1" id="Layer_1" xmlns="http://www.w3.org/2000/svg" xmlns:xlink="http://www.w3.org/1999/xlink" x="0px" y="0px"
	 viewBox="0 0 409.66 272.89" style="enable-background:new 0 0 409.66 272.89;" xml:space="preserve">
<style type="text/css">
	.st0{fill:#DB9927;}
	.st1{fill:#EC1E24;}
</style>
<g>
	<path class="st0" d="M391.69,238.21c0,0-50.71-71.4-180.98-32.32C210.72,205.89,332.16,137.37,391.69,238.21"/>
	<path class="st0" d="M394.18,220.93c0,0-54.87-82.75-187.22-25.91c0,0-148.21,60.96-180.38-2.96c0,0,15.34,19,45.72,23.53
		c0,0,32.57,5.06,94.43-18.03c0,0,81.25-34.6,123.1-32.66C289.83,164.89,362.39,165.73,394.18,220.93"/>
	<path class="st0" d="M288.91,150.08c0,0-37.85-1.56-84.35,20.35c0,0-113.49,54.1-145.77-6.76c0,0,27.05,56.6,143.87,2.02
		C202.66,165.69,260.46,141.61,288.91,150.08"/>
	<path class="st0" d="M117.09,189.82c0,0-1.54-11.05-17.5-16.62c0,0-0.58,13.83,3.3,16.91L117.09,189.82z"/>
	<path class="st0" d="M92.92,187.05c0,0,4.11-13.18-9.87-22.05c0,0-5.47,12.12-0.69,19.32L92.92,187.05z"/>
	<path class="st0" d="M71.28,177.51c0,0,6.14-12.37-3.57-24.26c0,0-7.32,7.89-5.37,16.56L71.28,177.51z"/>
	<path class="st0" d="M117.04,198.29c0,0,2.41,19.13-28.62,12.99C88.43,211.28,101.78,192.18,117.04,198.29"/>
	<path class="st0" d="M90.63,192.78c0,0-1.55,19.6-29.86,3.9C60.77,196.68,77.27,184.61,90.63,192.78"/>
	<path class="st0" d="M67.74,180.85c0,0-7.3,16.77-28.42-4.82C39.32,176.03,59.49,168.13,67.74,180.85"/>
	<path class="st0" d="M50.75,163.18c0,0-13.94,12.09-25.02-12.25C25.73,150.93,43.75,147.95,50.75,163.18"/>
	<path class="st0" d="M57.16,137.51c0,0,8.05,17.79-4.42,23.65C52.74,161.16,40.17,150.07,57.16,137.51"/>
	<path class="st0" d="M52.2,120.01c0,0,2.2,17.71-10.06,20.87C42.14,140.88,32.39,128.24,52.2,120.01"/>
	<path class="st0" d="M19.49,123.94c0,0,19.35,3.28,19.06,18.18C38.54,142.12,21.46,147.89,19.49,123.94"/>
	<path class="st0" d="M21.3,97.65c0,0,15.14,6.7,12.45,20.61C33.75,118.26,16.79,120.34,21.3,97.65"/>
	<path class="st0" d="M51.41,102.75c0,0-2.34,18.93-14.8,15.66C36.61,118.41,33.63,102.88,51.41,102.75"/>
	<path class="st0" d="M56.07,85.45c0,0-6.09,15.98-17.69,12.28C38.38,97.73,36.36,81.86,56.07,85.45"/>
	<path class="st0" d="M28.51,73.1c0,0,13.27,8.94,6.64,23.67C35.16,96.78,20.01,99.41,28.51,73.1"/>
	<path class="st0" d="M63.68,70.8c0,0-15.54-7.75-19.03,6.52C44.65,77.32,52.69,83.97,63.68,70.8"/>
	<path class="st0" d="M40.8,54.2c0,0,11.66,10.46,0.4,21.05C41.2,75.25,27.72,72.91,40.8,54.2"/>
	<path class="st0" d="M74.51,58.04c0,0-13.2-9.84-18.89,2.31C55.62,60.35,61.34,70.13,74.51,58.04"/>
	<path class="st0" d="M57.39,37.52c0,0,6.38,13.97-4.85,21.31C52.54,58.84,40.4,50.06,57.39,37.52"/>
	<path class="st0" d="M84.37,36.26c0,0-12.47,14.81-18.88,11.34C65.49,47.59,65.2,34.99,84.37,36.26"/>
	<g>
		<path class="st1" d="M122.13,125.63c-1.51,0.24-2.25,0.91-2.21,2c-0.18,0.3-0.35,0.63-0.53,0.98c-0.17,0.35-0.33,0.67-0.46,0.96
			c-0.12,0.11-0.22,0.31-0.31,0.6c-0.09,0.29-0.14,0.52-0.16,0.71c-1.02,2.13-1.44,3.81-1.23,5.06c0.21,1.29,1.07,2.27,2.6,2.93
			l0.01,0.07c0.76,0.15,1.51,0.17,2.27,0.04c2.27-0.37,4.01-3.25,5.24-8.65c0.21-0.67,0.27-1.28,0.19-1.81
			C127.13,126.07,125.33,125.11,122.13,125.63z"/>
		<path class="st1" d="M135.94,125.63c-1.51,0.24-2.25,0.91-2.21,2c-0.18,0.3-0.35,0.63-0.53,0.98c-0.17,0.35-0.33,0.67-0.46,0.96
			c-0.12,0.11-0.22,0.31-0.31,0.6c-0.09,0.29-0.14,0.52-0.16,0.71c-1.02,2.13-1.44,3.81-1.23,5.06c0.21,1.29,1.07,2.27,2.6,2.93
			l0.01,0.07c0.76,0.15,1.51,0.17,2.27,0.04c2.27-0.37,4.01-3.25,5.24-8.65c0.21-0.67,0.27-1.28,0.19-1.81
			C140.94,126.07,139.15,125.11,135.94,125.63z"/>
		<path class="st1" d="M130.75,110.97c-1.51,0.24-2.25,0.91-2.21,2c-0.18,0.3-0.35,0.63-0.53,0.98c-0.17,0.35-0.33,0.67-0.46,0.96
			c-0.12,0.11-0.22,0.31-0.31,0.6c-0.09,0.29-0.14,0.52-0.16,0.71c-1.02,2.13-1.44,3.81-1.23,5.06c0.21,1.29,1.07,2.27,2.6,2.93
			l0.01,0.07c0.76,0.15,1.51,0.17,2.27,0.04c2.27-0.37,4.01-3.25,5.24-8.65c0.21-0.67,0.27-1.28,0.19-1.81
			C135.75,111.42,133.95,110.46,130.75,110.97z"/>
		<path class="st1" d="M163.76,141.46c-2,0.32-4.74,2.02-8.21,5.09l0.07-0.01c-6.44,5.29-13.87,8.61-22.27,9.97
			c-4.18,0.68-7.9,0.69-11.15,0.03s-6.06-1.94-8.42-3.84c-4.28-3.6-6.92-8.51-7.93-14.73c-0.99-6.14,0.39-13.77,4.16-22.92
			c1.93-4.42,4.01-8.78,6.23-13.09c2.22-4.31,4.68-8.55,7.38-12.73c0.55,0.6,1.56,1.41,3.03,2.45c1.47,1.04,3.4,2.32,5.79,3.85
			c0.65,0.35,1.35,0.47,2.11,0.34c1.96-0.32,2.78-1.45,2.46-3.41c-0.19-1.16-0.77-2.34-1.74-3.55c-0.67-0.48-1.61-1.19-2.81-2.11
			c-1.2-0.92-2.69-2.13-4.49-3.62c0.94-1.8,1.85-3.58,2.72-5.37c0.87-1.78,1.79-3.55,2.74-5.3c1.16-2.42,2.24-4.91,3.24-7.47
			c1-2.56,1.93-5.27,2.79-8.15c0.62-2.93,0.67-6,0.15-9.2c-0.63-3.91-2.28-7.2-4.95-9.88c-2.62-2.68-6.23-3.65-10.81-2.91
			c-1.78,0.29-3.56,0.83-5.35,1.62c-4.67,2.17-7.98,5.69-9.92,10.57c-1.96,4.79-2.47,10.12-1.52,15.99
			c1.26,7.78,4.7,14.5,10.31,20.16c-1.04,1.76-2.2,3.7-3.48,5.8c-1.28,2.1-2.67,4.41-4.18,6.94c-1.47,2.47-2.86,5.01-4.17,7.62
			c-1.31,2.61-2.52,5.14-3.63,7.6c-2.87,6.53-4.85,12.58-5.96,18.14c-1.11,5.56-1.28,10.7-0.52,15.41
			c0.76,4.67,2.28,8.65,4.57,11.96c2.29,3.3,5.24,5.96,8.85,7.98c6.39,3.39,13.92,4.39,22.59,2.98c0.67-0.11,1.33-0.23,2-0.36
			c0.66-0.13,1.37-0.28,2.12-0.45c5.22-1.3,10.19-3.34,14.92-6.11c4.73-2.77,9.33-6.28,13.8-10.52c2.83-3.38,3.45-6.06,1.85-8.03
			C165.62,141.55,164.82,141.29,163.76,141.46z M115.85,63.66c-0.6-3.74,0.03-6.87,1.9-9.41c0.15-0.21,0.39-0.5,0.71-0.87
			c0.33-0.37,0.79-0.83,1.38-1.39c0.5-0.58,1-1.01,1.51-1.27c0.51-0.26,1.02-0.44,1.56-0.53c3.47-0.56,5.49,0.94,6.07,4.49
			c0.17,1.07,0.17,2.05,0,2.94c-0.12,2.67-0.8,5.55-2.06,8.65c-1.25,3.1-3,6.47-5.24,10.12C118.39,71.6,116.45,67.35,115.85,63.66z"
			/>
		<path class="st1" d="M181.68,83.23c0.45-0.07,0.89-0.17,1.3-0.29c0.42-0.12,0.86-0.34,1.32-0.68l0.01,0.08
			c3.32-2.39,6.1-4.1,8.35-5.13c2.38-1.21,4.74-2.25,7.1-3.11c2.35-0.87,4.72-1.55,7.11-2.04c4.44-0.87,6.5-2.24,6.2-4.09
			c-0.2-1.25-2.02-2.17-5.46-2.74l0.07-0.01c-1.06-0.19-2.28-0.27-3.67-0.25c-1.39,0.02-2.96,0.17-4.71,0.45
			c-7.82,1.27-14.36,4.25-19.61,8.96c-2.41,2.24-3.48,4.22-3.21,5.92C176.9,82.75,178.63,83.73,181.68,83.23z"/>
		<path class="st1" d="M240.11,109.11c6.17-5.73,9.72-11.76,10.65-18.08c0.16-0.59,0.17-1.34,0.02-2.24
			c-0.17-1.05-0.49-2.06-0.95-3.01c-0.46-0.95-1.04-1.76-1.74-2.42c-0.7-0.66-1.55-1.14-2.55-1.44c-1-0.3-2.13-0.35-3.38-0.15
			c-0.06,1.55-0.33,3.14-0.81,4.76c-0.48,1.62-1.2,3.23-2.15,4.82c-0.95,1.59-2.14,3.12-3.58,4.59c-1.43,1.47-3.16,2.83-5.16,4.08
			c-2.04,1.36-4.08,2.46-6.1,3.3c-1.82,0.76-3.67,1.3-5.55,1.7c-3.17,0.39-5.21,0.11-5.97-0.91c-1-1.12-1.3-2.33-0.9-3.63
			c0.16-0.59,0.23-1.36,0.21-2.31c-0.02-0.95-0.13-1.88-0.3-2.81c-0.18-0.92-0.47-1.79-0.88-2.6s-0.94-1.42-1.57-1.83
			c-0.62-0.31-1.26-0.5-1.94-0.57c-0.68-0.07-1.36-0.04-2.03,0.1c-0.67,0.13-1.26,0.41-1.76,0.82c-0.5,0.42-0.85,0.97-1.04,1.67
			c-0.49,2.03-1.22,4-2.17,5.91c-0.95,1.9-2.15,3.65-3.59,5.25c-1.44,1.6-3.15,2.97-5.12,4.11c-1.84,1.07-3.92,1.78-6.18,2.19
			c-8.97,1.07-14.05-1.87-15.18-8.84c-0.32-1.96-0.29-5.59,0.09-10.89c0.2-2.6,0.65-5.35,1.37-8.24c0.72-2.89,1.64-5.92,2.77-9.09
			c2.22-5.97,3.29-9.25,3.19-9.85c-0.32-2-1.46-2.85-3.42-2.53c-2.56,0.41-5.42,3.86-8.59,10.34c-3.24,6.39-5.26,12.81-6.06,19.27
			c-0.94,6.58-1.07,11.95-0.4,16.11c0.8,4.96,2.7,9.03,5.68,12.2c2.78,2.89,6.11,4.72,9.99,5.48c3.62,0.71,7.75,0.71,12.35,0.05
			l0.01,0.03c0.17-0.03,0.32-0.07,0.48-0.1c0.17-0.03,0.33-0.04,0.5-0.06l-0.01-0.03c3.9-0.72,7.39-1.87,10.43-3.5
			c3.29-1.77,5.7-4.14,7.22-7.11c2.8,4.1,7.63,5.85,14.44,5.33l0.02,0.13c0.49-0.06,0.97-0.17,1.45-0.26
			c0.1-0.01,0.18-0.01,0.28-0.02l0-0.02c2.83-0.54,5.62-1.47,8.38-2.84C233.84,114.3,237.03,112.03,240.11,109.11z"/>
		<path class="st1" d="M269.62,127.28c1.09-0.72,1.57-1.53,1.42-2.43c-0.11-0.65-0.63-1.2-1.58-1.63c-0.95-0.44-2.1-0.75-3.47-0.94
			c-2.29-0.5-5.39-0.44-9.3,0.19c-4.46,0.72-8.47,1.83-12.04,3.34c-3.56,1.5-6.69,3.45-9.39,5.84c-2.4,2.34-3.47,4.32-3.21,5.92
			c0.41,2.51,2.21,3.5,5.42,2.98c0.95-0.15,1.76-0.54,2.43-1.17l-0.14,0.1c3.88-2.43,7.95-4.53,12.21-6.3
			c4.27-1.77,8.58-3.16,12.94-4.18C266.97,128.58,268.53,128,269.62,127.28z"/>
		<path class="st1" d="M320.38,88.87c-1.29-3.19-3.66-4.47-7.11-3.86c-1.2,0.19-2.7,1.29-4.49,3.27c-1.79,1.99-3.86,4.76-6.21,8.33
			c-3.68,5.22-7.17,10.04-10.47,14.46c-3.3,4.42-6.41,8.37-9.35,11.85c-2.93,3.48-5.62,6.44-8.05,8.86
			c-2.44,2.43-4.61,4.26-6.52,5.49c-3.63,2.65-5.32,4.8-5.05,6.45c0.23,1.4,1.69,1.89,4.4,1.45c1.25-0.2,2.6-0.55,4.04-1.04
			c1.44-0.49,3.04-1.16,4.81-2.01c5.9-2.96,13.77-11.02,23.63-24.19c2.65-3.67,5.46-7.21,8.43-10.62c2.97-3.41,6.02-6.6,9.14-9.58
			c1.38-1.3,2.35-2.73,2.89-4.29C321.01,91.89,320.98,90.36,320.38,88.87z"/>
	</g>
</g>
</svg>
